<svg xmlns="http://www.w3.org/2000/svg" width="1200" height="620" viewBox="0 0 1200 620" role="img" aria-label="动态重算耗时分布与 500ms 阈值">
  <rect width="1200" height="620" rx="28" fill="#fbfaf5"/>
  <text x="64" y="62" font-family="Microsoft YaHei, sans-serif" font-size="30" font-weight="700" fill="#18372d">动态重算耗时分布与 500ms 阈值</text>
  <text x="64" y="96" font-family="Microsoft YaHei, sans-serif" font-size="16" fill="#65766e">上部放大显示 1200 个样本的实际分布；下部恢复 0–500ms 验收尺度</text>
  <rect x="90" y="272.7064220183486" width="46" height="147.2935779816514" rx="4" fill="#4b8c74"/><rect x="141" y="156.78899082568807" width="46" height="263.2110091743119" rx="4" fill="#4b8c74"/><rect x="192" y="135" width="46" height="285" rx="4" fill="#4b8c74"/><rect x="243" y="271.8348623853211" width="46" height="148.16513761467888" rx="4" fill="#4b8c74"/><rect x="294" y="372.9357798165138" width="46" height="47.06422018348624" rx="4" fill="#4b8c74"/><rect x="345" y="372.0642201834862" width="46" height="47.93577981651376" rx="4" fill="#4b8c74"/><rect x="396" y="397.3394495412844" width="46" height="22.660550458715598" rx="4" fill="#4b8c74"/><rect x="447" y="391.23853211009174" width="46" height="28.761467889908257" rx="4" fill="#4b8c74"/><rect x="498" y="399.08256880733944" width="46" height="20.91743119266055" rx="4" fill="#4b8c74"/><rect x="549" y="411.2844036697248" width="46" height="8.715596330275229" rx="4" fill="#4b8c74"/><rect x="600" y="417.38532110091745" width="46" height="2.614678899082569" rx="4" fill="#4b8c74"/><rect x="651" y="408.6697247706422" width="46" height="11.330275229357799" rx="4" fill="#4b8c74"/><rect x="702" y="413.0275229357798" width="46" height="6.972477064220183" rx="4" fill="#4b8c74"/><rect x="753" y="416.51376146788994" width="46" height="3.4862385321100917" rx="4" fill="#4b8c74"/><rect x="804" y="419.1284403669725" width="46" height="0.8715596330275229" rx="4" fill="#4b8c74"/><rect x="855" y="419.1284403669725" width="46" height="0.8715596330275229" rx="4" fill="#4b8c74"/><rect x="906" y="420" width="46" height="0" rx="4" fill="#4b8c74"/><rect x="957" y="420" width="46" height="0" rx="4" fill="#4b8c74"/><rect x="1008" y="420" width="46" height="0" rx="4" fill="#4b8c74"/><rect x="1059" y="420" width="46" height="0" rx="4" fill="#4b8c74"/><line x1="90" x2="1110" y1="420" y2="420" stroke="#718078"/>
    <line x1="503.6202" x2="503.6202" y1="123" y2="420" stroke="#b67c3c" stroke-width="3" stroke-dasharray="8 6"/><text x="511.6202" y="117" font-family="Microsoft YaHei, sans-serif" font-size="17" fill="#9b632c">P95 8.11ms</text>
    <text x="90" y="450" font-family="Microsoft YaHei, sans-serif" font-size="16" fill="#65766e">0</text><text x="1110" y="450" text-anchor="end" font-family="Microsoft YaHei, sans-serif" font-size="16" fill="#65766e">20ms（分布放大）</text>
    <text x="90" y="500" font-family="Microsoft YaHei, sans-serif" font-size="16" fill="#31463e">验收尺度</text><line x1="90" x2="1110" y1="535" y2="535" stroke="#d7ded7" stroke-width="14" stroke-linecap="round"/>
    <line x1="106.544808" x2="106.544808" y1="518" y2="552" stroke="#b67c3c" stroke-width="4"/><line x1="1110" x2="1110" y1="510" y2="558" stroke="#bd4a3d" stroke-width="5"/><text x="1110" y="590" text-anchor="end" font-family="Microsoft YaHei, sans-serif" font-size="16" fill="#bd4a3d">500ms 阈值</text>
</svg>
